<svg width="16" height="16" viewBox="0 0 16 16" fill="none" xmlns="http://www.w3.org/2000/svg">
<path d="M2 12V13.3903C2 13.7271 2.22711 14 2.50732 14H13.4927C13.7729 14 14 13.7271 14 13.3903V12H2Z" fill="#3B72A7"/>
<path d="M16 3.57239C16 2.73291 15.317 2.04993 14.4775 2.04993C13.6381 2.04993 12.9552 2.73291 12.9552 3.57239C12.9552 3.97595 13.1133 4.34314 13.3706 4.61584C12.913 5.12781 12.2484 5.45093 11.5094 5.45093C10.3131 5.45093 9.31116 4.60522 9.06873 3.48047C9.34863 3.20422 9.52246 2.8208 9.52246 2.39746C9.52246 1.55798 8.83948 0.875 8 0.875C7.16052 0.875 6.47754 1.55798 6.47754 2.39746C6.47754 2.8208 6.65149 3.20422 6.93127 3.48047C6.68884 4.60522 5.68689 5.45093 4.4906 5.45093C3.75159 5.45093 3.08704 5.12781 2.62939 4.61584C2.88672 4.34314 3.04492 3.97595 3.04492 3.57239C3.04492 2.73291 2.36194 2.04993 1.52246 2.04993C0.682983 2.04993 0 2.73291 0 3.57239C0 4.29993 0.513062 4.90955 1.19629 5.0592L2 11H14L14.8037 5.0592C15.4869 4.90942 16 4.29993 16 3.57239Z" fill="#3B72A7"/>
</svg>
