<svg width="17" height="17" viewBox="0 0 17 17" fill="none" xmlns="http://www.w3.org/2000/svg">
<path fill-rule="evenodd" clip-rule="evenodd" d="M8.5 17C13.1944 17 17 13.1944 17 8.5C17 3.80558 13.1944 0 8.5 0C3.80558 0 0 3.80558 0 8.5C0 13.1944 3.80558 17 8.5 17ZM7 8.5C7 7.67157 7.67157 7 8.5 7C9.32843 7 10 7.67157 10 8.5V12.5C10 13.3284 9.32843 14 8.5 14C7.67157 14 7 13.3284 7 12.5V8.5ZM8.5 3C7.67157 3 7 3.67157 7 4.5C7 5.32843 7.67157 6 8.5 6C9.32843 6 10 5.32843 10 4.5C10 3.67157 9.32843 3 8.5 3Z" fill="#A3A9AE"/>
</svg>
